HIERARCHY
ROOT Hips
{
    OFFSET 0.0 0.0 0.0
    CHANNELS 6 Xposition Yposition Zposition Zrotation Xrotation Yrotation
    JOINT LeftUpLeg
    {
        OFFSET 12.720798384596787 0.0 0.0
        CHANNELS 3 Zrotation Xrotation Yrotation
        JOINT LeftLeg
        {
            OFFSET 0.0 0.0 -52.685856744923655
            CHANNELS 3 Zrotation Xrotation Yrotation
            JOINT LeftFoot
            {
                OFFSET 0.0 0.0 -43.18626831856538
                CHANNELS 3 Zrotation Xrotation Yrotation
                JOINT LeftToeBase
                {
                    OFFSET 0.0 -11.67410698254159 0.0
                    CHANNELS 3 Zrotation Xrotation Yrotation
                    End Site
                    {
                        OFFSET 0 0 0
                    }
                }
            }
        }
    }
    JOINT RightUpLeg
    {
        OFFSET -12.720798384596787 0.0 0.0
        CHANNELS 3 Zrotation Xrotation Yrotation
        JOINT RightLeg
        {
            OFFSET 0.0 0.0 -52.685856744923655
            CHANNELS 3 Zrotation Xrotation Yrotation
            JOINT RightFoot
            {
                OFFSET 0.0 0.0 -43.18626831856538
                CHANNELS 3 Zrotation Xrotation Yrotation
                JOINT RightToeBase
                {
                    OFFSET 0.0 -11.67410698254159 0.0
                    CHANNELS 3 Zrotation Xrotation Yrotation
                    End Site
                    {
                        OFFSET 0 0 0
                    }
                }
            }
        }
    }
    JOINT Spine
    {
        OFFSET 0.0 0.0 10.432825032501196
        CHANNELS 3 Zrotation Xrotation Yrotation
        JOINT Spine1
        {
            OFFSET 0.0 0.0 10.353803107151661
            CHANNELS 3 Zrotation Xrotation Yrotation
            JOINT Spine2
            {
                OFFSET 0.0 0.0 10.353803107151661
                CHANNELS 3 Zrotation Xrotation Yrotation
                JOINT Spine3
                {
                    OFFSET 0.0 0.0 10.35380310715166
                    CHANNELS 3 Zrotation Xrotation Yrotation
                    JOINT Spine4
                    {
                        OFFSET 0.0 0.0 10.353803107151663
                        CHANNELS 3 Zrotation Xrotation Yrotation
                        JOINT RightShoulder
                        {
                            OFFSET -22.564767137083123 0.0 0.0
                            CHANNELS 3 Zrotation Xrotation Yrotation
                            JOINT RightArm
                            {
                                OFFSET -31.548315739104318 0.0 0.0
                                CHANNELS 3 Zrotation Xrotation Yrotation
                                JOINT RightForeArm
                                {
                                    OFFSET -31.56471014357113 0.0 0.0
                                    CHANNELS 3 Zrotation Xrotation Yrotation
                                    JOINT RightHand
                                    {
                                        OFFSET -9.810339066283056 0.0 0.0
                                        CHANNELS 3 Zrotation Xrotation Yrotation
                                        End Site
                                        {
                                            OFFSET 0 0 0
                                        }
                                    }
                                }
                            }
                        }
                        JOINT LeftShoulder
                        {
                            OFFSET 22.564767137083123 0.0 0.0
                            CHANNELS 3 Zrotation Xrotation Yrotation
                            JOINT LeftArm
                            {
                                OFFSET 31.548315739104318 0.0 0.0
                                CHANNELS 3 Zrotation Xrotation Yrotation
                                JOINT LeftForeArm
                                {
                                    OFFSET 31.56471014357113 0.0 0.0
                                    CHANNELS 3 Zrotation Xrotation Yrotation
                                    JOINT LeftHand
                                    {
                                        OFFSET 9.810339066283056 0.0 0.0
                                        CHANNELS 3 Zrotation Xrotation Yrotation
                                        End Site
                                        {
                                            OFFSET 0 0 0
                                        }
                                    }
                                }
                            }
                        }
                        JOINT Neck
                        {
                            OFFSET 0.0 0.0 10.35380294826282
                            CHANNELS 3 Zrotation Xrotation Yrotation
                            JOINT Head
                            {
                                OFFSET 0.0 0.0 26.53865104321458
                                CHANNELS 3 Zrotation Xrotation Yrotation
                                End Site
                                {
                                    OFFSET 0 0 0
                                }
                            }
                        }
                    }
                }
            }
        }
    }
}
MOTION
Frames: 8
Frame Time: 0.03333333333333333
77.69860689640045 -14.928483599424364 494.51949863433845 69.49755471080157 -80.22422319946895 87.21685477741985 4.91446019653407 -5.484746223452091 -31.368919246246797 17.47137421996672 -2.639816257966205 26.286046751699473 -124.75992104263423 0.0 57.03053160380265 6.3611093629270335e-15 0.0 0.0 -162.5206636503906 -12.749692630923182 -55.732446120943315 172.76840718302037 2.3397447463268133 -82.27282574075903 144.56342392422795 1.2722218725854067e-14 -84.88815299933948 0.0 0.0 0.0 -0.06518990530402705 -4.318841139592986 2.0379674909385517 0.0 0.0 1.5902773407317588e-15 0.0 0.0 1.5902773407317588e-15 0.0 0.0 1.5902773407317588e-15 0.0 0.0 1.5902773407317588e-15 59.80005671142015 79.57965460093305 -62.94171074631442 23.866686479587603 6.059224597444725e-15 -2.0932642236349445e-15 -180.0 -24.09874446255993 -180.0 7.951386703658792e-16 0.0 0.0 -13.366769833524817 2.948495278582805 -62.299780249426924 -14.16435115419553 -3.1567674653929864e-14 -1.03320048084924e-14 4.2844410777255214e-14 77.94749454464429 -4.2844410777255214e-14 6.3611093629270335e-15 -2.2069531490250793e-31 -3.975693351829396e-15 -10.724094163579718 2.47220049661589e-16 1.620470809292164e-15 0.0 0.0 1.5902773407317582e-15
78.81508927345276 -15.331022715568544 494.39589042663573 73.49847775709308 -78.87982155680578 91.12032345167866 4.761933440298218 -5.031495490192904 -31.414604758737838 16.497103787284964 -2.6608301953541553 27.488039815157546 -125.12479891119884 3.1805546814635168e-15 59.25618541829301 0.0 0.0 0.0 -169.5297616308001 -7.791728606204516 -57.874665796990264 175.84351896788766 1.396316480311706 -101.53666979497972 151.27445914927648 -3.1805546814635168e-15 -116.65895009490204 0.0 0.0 0.0 -0.07741999134722807 -3.87777545109673 2.423190234627615 0.0 0.0 -7.951386703658792e-16 0.0 0.0 -7.951386703658792e-16 0.0 0.0 -7.951386703658792e-16 0.0 0.0 -7.951386703658792e-16 65.1699877136946 78.68981027860917 -68.90698730568332 24.90053686654119 2.8234242008706402e-15 8.016363197100894e-16 180.0 -13.982625468943112 180.0 -1.987846675914698e-16 0.0 0.0 -7.01902465697055 7.571244451385324 -62.42320745929046 -11.975963084851264 -4.902961453258589e-14 -5.142822224573382e-15 4.9343410281778395e-14 85.00340252004372 -5.3845673175604055e-14 0.0 0.0 2.5842006786891076e-15 -11.567112878462185 -7.760834247911525e-15 5.607588609872356e-15 0.0 0.0 0.0
79.77742123603821 -15.76715272665024 494.35109481811526 77.00164092821227 -77.49859422395726 94.56918547425272 3.62968425482788 -3.797950115006861 -31.897201369417502 16.54417694374675 -2.8022860693935563 29.113117610983625 -115.22873858748416 1.5902773407317584e-14 46.285322976725084 0.0 0.0 0.0 -176.67727254096516 -2.255286256280229 -59.848098509082 -179.7740745970476 -0.08173921137274046 -116.78659757805207 158.54344726637697 -1.4312496066585827e-14 -140.84981594560068 0.0 0.0 6.3611093629270335e-15 -0.11124804466958647 -3.4283923123816566 2.870109759359473 -7.951386703658792e-16 -2.758691436281349e-33 3.975693351829396e-16 -7.951386703658792e-16 -2.758691436281349e-33 3.975693351829396e-16 -7.951386703658792e-16 -2.758691436281349e-33 3.975693351829396e-16 -7.951386703658792e-16 -2.758691436281349e-33 3.975693351829396e-16 72.74232950142643 77.96182069010801 -76.82630909214663 26.28196517224937 -1.5870519789278357e-15 2.820076629204567e-15 -180.0 -5.793470710109831 -180.0 -6.957463365701443e-16 -5.963540027744094e-16 1.5902773407317584e-15 -2.30911406193407 11.2676961557781 -62.454424178779774 -10.07717960637077 -1.4584302451220475e-14 -1.5653877082430617e-14 -179.99999999999977 88.93276416352502 179.99999999999977 0.0 0.0 0.0 -12.404833628257329 9.622998683843065e-16 -1.4950606973844366e-15 0.0 0.0 -1.5902773407317584e-15
80.50053706169128 -16.192225867509844 494.3717296600342 79.92390898707227 -76.38229971172173 97.63957241800364 0.5508818436131392 -0.8394458141401973 -32.67124031451156 19.851081797387973 -3.3552830501353785 30.36407516116701 -93.225450961391 -3.1805546814635168e-15 31.11080228260528 0.0 0.0 0.0 177.54249412819763 2.337852044077142 -61.26516505900756 -175.71452876806362 -1.7027421457582432 -122.87363500767376 157.0812864438428 5.565970692561154e-15 -146.62373517159628 0.0 0.0 0.0 -0.1669290680515779 -3.067740049073693 3.3111558246095334 -2.7829853462805768e-15 1.9878466759146985e-16 -1.9878466759146976e-15 -2.7829853462805768e-15 1.9878466759146985e-16 -1.9878466759146976e-15 -2.7829853462805768e-15 1.9878466759146985e-16 -1.9878466759146976e-15 -2.7829853462805768e-15 1.9878466759146985e-16 -1.9878466759146976e-15 80.6944715011082 76.85668197820523 -84.93465193413786 26.70969797411956 4.22229698470009e-15 -2.8729405227267873e-16 180.0 -0.5651682614716877 -180.0 -1.2424041724466862e-16 0.0 0.0 9.574730131837839 17.821977149997533 -65.844508641246 -8.888340784241215 1.9025950471620744e-14 1.4787222847770167e-15 4.550254495964305e-14 84.03864191274042 -4.099846794640251e-14 0.0 -3.1805546814635164e-15 0.0 -12.943348645650339 -1.4374494927757907e-15 -4.96448502330983e-15 0.0 0.0 1.5902773407317584e-15
81.10178346633911 -16.60932592749596 494.4293643951416 82.55187684751478 -75.52115704534745 100.53478520921419 -4.579972355995401 4.18763568575558 -33.76238689212509 26.360721003362084 -4.171178208455016 33.05658429300838 -108.44943641812031 -1.5902773407317584e-14 45.11956291923882 1.7655625192200634e-31 3.1805546814635168e-15 -6.3611093629270335e-15 173.12954162780733 5.675728375974501 -62.28093925317845 -171.83596535734657 -3.5129555019566836 -123.88679499639483 155.1684405754994 1.828818941841522e-14 -146.60136812905438 -3.1805546814635168e-15 1.7655625192200634e-31 -6.3611093629270335e-15 -0.22455573586239003 -2.8273918016922597 3.561210530215298 0.0 0.0 7.951386703658792e-16 0.0 0.0 7.951386703658792e-16 0.0 0.0 7.951386703658792e-16 0.0 0.0 7.951386703658792e-16 85.18742002759035 75.7355640771767 -89.69331666041134 26.90958372728958 2.3199454378601345e-15 -5.550339731520146e-16 -180.0 2.270769565236251 180.0 -3.975693351829396e-16 0.0 0.0 -18.22214445942922 4.444680919817253 -56.87453108892868 -5.126812971456663 -1.3574956184137821e-14 9.841227547034838e-16 180.0 56.753621437632155 -180.0 0.0 0.0 0.0 -13.377918729105245 -7.526793553657224e-15 -4.085077403614938e-15 0.0 0.0 1.5902773407317584e-15
81.55255694389344 -16.88346889615059 494.50145988464357 84.5460781251007 -74.81741626020732 102.95721952593773 -9.967864427440086 9.5378149468856 -34.19216625740343 33.45299484822372 -5.089618553048442 35.50794495061344 -92.01996982339952 -3.1805546814635168e-15 36.27003884387702 0.0 0.0 0.0 170.21047143326214 7.769311778439995 -62.67417287316871 -169.34862623209742 -4.8485006666650134 -123.85608918627887 149.40932049559206 0.0 -147.39583384131663 0.0 0.0 6.3611093629270335e-15 -0.28600909095306026 -2.7495067453411584 3.767780000764961 0.0 0.0 1.5902773407317584e-15 0.0 0.0 1.5902773407317584e-15 0.0 0.0 1.5902773407317584e-15 0.0 0.0 1.5902773407317584e-15 88.07064013996086 74.58174134555047 -92.9805573652474 26.201098560631916 4.407597671834486e-16 -3.368116876818874e-15 180.0 2.663461708220607 180.0 -9.93923337957349e-17 3.975693351829396e-16 -1.5902773407317584e-15 -72.09546461280624 -30.06383170057163 -65.7024731410098 -6.428605496774017 1.8745530320830947e-14 -5.400511169535439e-16 180.0 -17.941682861895448 180.0 0.0 0.0 0.0 -14.46436000187546 4.14426404045865e-15 -1.07712358213284e-15 0.0 0.0 -1.5902773407317584e-15
81.90644187927248 -17.09496556520462 494.5789260864258 86.18678197964864 -74.27146683274121 105.09919467251748 -14.987993254598633 14.587116591908368 -33.97627462886596 40.184799553243884 -5.980945403723052 37.73619308090196 -66.64475562194811 -1.1131941385122309e-14 29.421974263348652 -3.1805546814635168e-15 0.0 0.0 168.03506279706727 9.222316655323455 -62.81330668374623 -167.6087733988386 -5.883589166359567 -125.84165439638058 149.8443500144704 6.3611093629270335e-15 -148.48083911207195 0.0 0.0 0.0 -0.34784679062553925 -2.7456128617602054 3.952244052132595 0.0 0.0 -1.5902773407317584e-15 0.0 0.0 -1.5902773407317584e-15 0.0 0.0 -1.5902773407317584e-15 0.0 0.0 -1.5902773407317584e-15 88.38392344740025 73.47518748840977 -93.92632577351162 25.193063420289374 4.742701505388688e-15 -6.524430941205006e-16 180.0 -1.312725621485683 180.0 2.3170837816130698e-15 3.2155997054154475e-32 1.5902773407317584e-15 -90.69968967946261 -40.2695107738823 -75.00212344622632 -13.320085778617003 2.5462194302192306e-15 4.7142958888086586e-17 180.0 -52.30668558974021 180.0 0.0 0.0 -3.1805546814635168e-15 -15.712608489561612 -1.067452862064097e-14 1.73777362527234e-15 0.0 0.0 1.5902773407317584e-15
82.16923484802246 -17.269015556573866 494.654220199585 87.69592642569778 -73.95317927167844 107.10007536577238 -20.143721856879456 19.64883221390315 -33.108542166588805 47.115425356297244 -6.794031895778281 39.85831098991342 -67.68998985205009 -1.4312496066585827e-14 31.320242919809786 0.0 0.0 0.0 166.6350614355592 10.034376759321857 -62.71424039238044 -166.42337756510065 -6.594559101355381 -127.17221791773811 147.39134161931023 -1.1131941385122309e-14 -150.57170759569803 0.0 0.0 6.3611093629270335e-15 -0.4026633632256662 -2.7695818292640504 4.104859609837382 -1.5902773407317584e-15 -2.2069531490250793e-32 1.5902773407317584e-15 -1.5902773407317584e-15 -2.2069531490250793e-32 1.5902773407317584e-15 -1.5902773407317584e-15 -2.2069531490250793e-32 1.5902773407317584e-15 -1.5902773407317584e-15 -2.2069531490250793e-32 1.5902773407317584e-15 84.87240057923138 72.47128040244341 -91.28780088404696 23.84687120047162 5.333526200673639e-15 -7.198926792484412e-16 180.0 -12.542133120464074 -180.0 7.951386703658792e-16 0.0 0.0 -95.95891503258902 -44.53880848538163 -78.44744103541308 -17.916368862145063 5.815824090064617e-17 1.0978752339164847e-16 5.6096664583150824e-14 -85.252580424306 4.730839212347914e-14 0.0 0.0 6.3611093629270335e-15 -16.730951717411042 -2.6330535796159997e-14 4.1649528727401465e-15 1.5902773407317588e-15 -2.2069531490250793e-32 -1.5902773407317588e-15
